<svg width="301" height="301" viewBox="0 0 301 301" fill="none" xmlns="http://www.w3.org/2000/svg">
<path d="M150.5 25.0833C125.695 25.0833 101.447 32.4389 80.8222 46.2198C60.1975 60.0008 44.1226 79.5882 34.6301 102.505C25.1376 125.422 22.6539 150.639 27.4932 174.968C32.3324 199.296 44.2772 221.643 61.817 239.183C79.3568 256.723 101.704 268.668 126.032 273.507C150.361 278.346 175.578 275.862 198.495 266.37C221.412 256.877 240.999 240.802 254.78 220.178C268.561 199.553 275.917 175.305 275.917 150.5C275.917 134.03 272.673 117.721 266.37 102.505C260.067 87.2888 250.829 73.463 239.183 61.817C227.537 50.171 213.711 40.9329 198.495 34.6301C183.279 28.3273 166.97 25.0833 150.5 25.0833ZM125.417 206.937V94.0625L200.667 150.5L125.417 206.937Z" fill="#3F9AAE"/>
</svg>
